Normalized EMG Linear Envelopes
nRows=59
nColumns=17

endheader
time	1_BAD	2_Glutmax_R	3_Vaslat_R	4_Recfem_R	5_Bifem_R	6_Gasmed_R	7_BAD	8_Soleus_R	9_Tibant_R	10_Glutmax_L	11_Vaslat_L	12_Recfem_L	13_Bifem_L	14_Gasmed_L	15_Soleus_L	16_Tibant_L
15.070	0.685348	0.004274	0.014296	0.073193	0.022658	0.099521	0.019445	0.011925	0.019789	0.012328	0.019753	0.047917	0.003940	0.042924	0.065572	0.036411	
15.071	0.681793	0.005376	0.015288	0.091758	0.023341	0.107952	0.019727	0.014827	0.024226	0.015473	0.021865	0.050386	0.004921	0.046446	0.072563	0.038071	
15.072	0.677947	0.006487	0.016234	0.110364	0.023996	0.116313	0.020011	0.017689	0.028662	0.018632	0.024000	0.052898	0.005897	0.049993	0.079593	0.039727	
15.073	0.673818	0.007606	0.017129	0.128981	0.024621	0.124587	0.020297	0.020506	0.033093	0.021800	0.026153	0.055446	0.006866	0.053559	0.086650	0.041373	
15.074	0.669414	0.008728	0.017971	0.147575	0.025214	0.132752	0.020584	0.023275	0.037511	0.024971	0.028322	0.058024	0.007826	0.057137	0.093722	0.043005	
15.075	0.664743	0.009854	0.018757	0.166116	0.025772	0.140791	0.020872	0.025991	0.041912	0.028141	0.030502	0.060627	0.008776	0.060722	0.100795	0.044619	
15.076	0.659815	0.010979	0.019485	0.184572	0.026293	0.148686	0.021160	0.028653	0.046290	0.031305	0.032690	0.063248	0.009713	0.064309	0.107856	0.046210	
15.077	0.654640	0.012101	0.020153	0.202912	0.026775	0.156417	0.021448	0.031256	0.050640	0.034456	0.034882	0.065880	0.010636	0.067890	0.114892	0.047775	
15.078	0.649229	0.013219	0.020758	0.221107	0.027216	0.163969	0.021734	0.033797	0.054957	0.037591	0.037074	0.068518	0.011544	0.071461	0.121890	0.049309	
15.079	0.643593	0.014330	0.021298	0.239126	0.027614	0.171323	0.022018	0.036274	0.059236	0.040705	0.039262	0.071153	0.012434	0.075016	0.128836	0.050809	
15.080	0.637746	0.015431	0.021772	0.256941	0.027968	0.178465	0.022301	0.038684	0.063475	0.043792	0.041442	0.073780	0.013306	0.078548	0.135718	0.052271	
15.081	0.631699	0.016521	0.022178	0.274526	0.028276	0.185377	0.022580	0.041024	0.067669	0.046849	0.043610	0.076390	0.014159	0.082053	0.142523	0.053691	
15.082	0.625468	0.017596	0.022516	0.291853	0.028537	0.192046	0.022857	0.043294	0.071814	0.049871	0.045762	0.078978	0.014990	0.085523	0.149238	0.055066	
15.083	0.619064	0.018656	0.022784	0.308896	0.028751	0.198458	0.023131	0.045491	0.075908	0.052854	0.047894	0.081534	0.015798	0.088954	0.155849	0.056393	
15.084	0.612504	0.019697	0.022982	0.325632	0.028917	0.204600	0.023400	0.047614	0.079948	0.055795	0.050003	0.084053	0.016583	0.092340	0.162346	0.057669	
15.085	0.605802	0.020717	0.023109	0.342039	0.029034	0.210458	0.023666	0.049661	0.083931	0.058689	0.052084	0.086527	0.017343	0.095676	0.168715	0.058891	
15.086	0.598972	0.021715	0.023166	0.358093	0.029103	0.216024	0.023928	0.051631	0.087857	0.061534	0.054133	0.088949	0.018077	0.098955	0.174944	0.060057	
15.087	0.592032	0.022689	0.023154	0.373774	0.029124	0.221285	0.024186	0.053525	0.091723	0.064326	0.056148	0.091311	0.018784	0.102173	0.181022	0.061165	
15.088	0.584996	0.023636	0.023072	0.389065	0.029098	0.226233	0.024439	0.055341	0.095527	0.067062	0.058123	0.093607	0.019464	0.105325	0.186939	0.062212	
15.089	0.577880	0.024556	0.022923	0.403947	0.029025	0.230859	0.024688	0.057079	0.099270	0.069740	0.060055	0.095829	0.020116	0.108405	0.192681	0.063197	
15.090	0.570701	0.025445	0.022707	0.418404	0.028907	0.235157	0.024932	0.058739	0.102951	0.072356	0.061941	0.097971	0.020740	0.111409	0.198241	0.064118	
15.091	0.563475	0.026304	0.022426	0.432422	0.028747	0.239120	0.025173	0.060322	0.106569	0.074909	0.063777	0.100027	0.021333	0.114331	0.203606	0.064974	
15.092	0.556218	0.027130	0.022083	0.445988	0.028545	0.242743	0.025409	0.061829	0.110124	0.077396	0.065560	0.101989	0.021898	0.117167	0.208769	0.065764	
15.093	0.548947	0.027923	0.021680	0.459091	0.028306	0.246023	0.025640	0.063259	0.113617	0.079817	0.067286	0.103852	0.022432	0.119913	0.213720	0.066487	
15.094	0.541676	0.028681	0.021220	0.471720	0.028031	0.248957	0.025868	0.064614	0.117048	0.082168	0.068952	0.105611	0.022935	0.122564	0.218450	0.067142	
15.095	0.534423	0.029403	0.020707	0.483866	0.027726	0.251542	0.026092	0.065895	0.120418	0.084450	0.070555	0.107259	0.023409	0.125116	0.222953	0.067729	
15.096	0.527204	0.030089	0.020144	0.495524	0.027393	0.253779	0.026313	0.067103	0.123729	0.086660	0.072092	0.108791	0.023851	0.127565	0.227221	0.068248	
15.097	0.520034	0.030738	0.019535	0.506687	0.027037	0.255667	0.026530	0.068241	0.126980	0.088798	0.073561	0.110203	0.024264	0.129908	0.231247	0.068698	
15.098	0.512928	0.031350	0.018885	0.517350	0.026663	0.257209	0.026744	0.069310	0.130174	0.090863	0.074959	0.111491	0.024646	0.132140	0.235027	0.069080	
15.099	0.505901	0.031924	0.018198	0.527513	0.026278	0.258406	0.026956	0.070311	0.133312	0.092854	0.076282	0.112649	0.024998	0.134260	0.238554	0.069395	
15.100	0.498969	0.032460	0.017480	0.537172	0.025886	0.259262	0.027165	0.071247	0.136395	0.094772	0.077530	0.113676	0.025320	0.136262	0.241826	0.069643	
15.101	0.492146	0.032958	0.016736	0.546328	0.025495	0.259782	0.027372	0.072120	0.139425	0.096616	0.078699	0.114567	0.025612	0.138145	0.244839	0.069825	
15.102	0.485445	0.033420	0.015972	0.554983	0.025111	0.259971	0.027578	0.072932	0.142405	0.098386	0.079788	0.115320	0.025875	0.139906	0.247589	0.069942	
15.103	0.478881	0.033844	0.015194	0.563137	0.024742	0.259835	0.027782	0.073686	0.145335	0.100082	0.080796	0.115932	0.026110	0.141543	0.250077	0.069996	
15.104	0.472467	0.034232	0.014410	0.570796	0.024397	0.259382	0.027986	0.074385	0.148217	0.101705	0.081720	0.116403	0.026317	0.143053	0.252300	0.069986	
15.105	0.466214	0.034586	0.013624	0.577963	0.024084	0.258618	0.028188	0.075030	0.151054	0.103255	0.082559	0.116731	0.026496	0.144436	0.254259	0.069916	
15.106	0.460136	0.034905	0.012846	0.584643	0.023812	0.257554	0.028391	0.075625	0.153846	0.104733	0.083312	0.116914	0.026649	0.145688	0.255956	0.069786	
15.107	0.454245	0.035191	0.012082	0.590845	0.023591	0.256198	0.028594	0.076172	0.156596	0.106140	0.083979	0.116954	0.026776	0.146809	0.257392	0.069599	
15.108	0.448550	0.035447	0.011341	0.596574	0.023431	0.254561	0.028797	0.076675	0.159304	0.107476	0.084558	0.116849	0.026878	0.147799	0.258570	0.069357	
15.109	0.443062	0.035672	0.010629	0.601839	0.023343	0.252652	0.029002	0.077135	0.161973	0.108743	0.085049	0.116601	0.026955	0.148656	0.259495	0.069061	
15.110	0.437792	0.035871	0.009956	0.606650	0.023338	0.250483	0.029207	0.077557	0.164604	0.109942	0.085452	0.116211	0.027009	0.149381	0.260170	0.068713	
15.111	0.432748	0.036044	0.009330	0.611015	0.023428	0.248065	0.029415	0.077942	0.167198	0.111073	0.085768	0.115680	0.027041	0.149972	0.260602	0.068317	
15.112	0.427938	0.036194	0.008760	0.614946	0.023624	0.245411	0.029624	0.078294	0.169755	0.112140	0.085996	0.115011	0.027051	0.150432	0.260798	0.067874	
15.113	0.423370	0.036324	0.008255	0.618453	0.023941	0.242532	0.029835	0.078615	0.172277	0.113142	0.086136	0.114206	0.027041	0.150760	0.260765	0.067387	
15.114	0.419051	0.036436	0.007823	0.621548	0.024389	0.239442	0.030049	0.078908	0.174763	0.114081	0.086190	0.113268	0.027012	0.150958	0.260512	0.066858	
15.115	0.414986	0.036534	0.007475	0.624242	0.024984	0.236152	0.030265	0.079177	0.177216	0.114959	0.086159	0.112201	0.026965	0.151027	0.260049	0.066290	
15.116	0.411182	0.036620	0.007220	0.626549	0.025739	0.232675	0.030485	0.079424	0.179634	0.115777	0.086044	0.111008	0.026900	0.150969	0.259386	0.065685	
15.117	0.407641	0.036698	0.007067	0.628480	0.026668	0.229026	0.030707	0.079652	0.182017	0.116537	0.085846	0.109693	0.026819	0.150787	0.258535	0.065047	
15.118	0.404367	0.036771	0.007025	0.630050	0.027785	0.225217	0.030933	0.079864	0.184365	0.117241	0.085567	0.108260	0.026724	0.150481	0.257507	0.064378	
15.119	0.401363	0.036843	0.007106	0.631272	0.029105	0.221260	0.031162	0.080061	0.186678	0.117889	0.085209	0.106716	0.026615	0.150057	0.256317	0.063681	
15.120	0.398630	0.036918	0.007318	0.632159	0.030643	0.217170	0.031395	0.080248	0.188954	0.118485	0.084775	0.105064	0.026493	0.149516	0.254978	0.062958	
15.121	0.396169	0.037000	0.007671	0.632725	0.032415	0.212959	0.031631	0.080426	0.191192	0.119029	0.084265	0.103310	0.026360	0.148862	0.253505	0.062213	
15.122	0.393980	0.037093	0.008174	0.632985	0.034435	0.208640	0.031871	0.080599	0.193392	0.119524	0.083683	0.101460	0.026217	0.148099	0.251914	0.061448	
15.123	0.392060	0.037201	0.008839	0.632953	0.036719	0.204226	0.032114	0.080768	0.195551	0.119970	0.083032	0.099520	0.026064	0.147231	0.250221	0.060666	
15.124	0.390408	0.037329	0.009674	0.632644	0.039282	0.199730	0.032361	0.080935	0.197667	0.120369	0.082314	0.097496	0.025904	0.146263	0.248442	0.059870	
15.125	0.389020	0.037480	0.010688	0.632071	0.042141	0.195163	0.032611	0.081105	0.199738	0.120724	0.081533	0.095395	0.025737	0.145200	0.246596	0.059063	
15.126	0.387893	0.037661	0.011892	0.631249	0.045309	0.190539	0.032864	0.081277	0.201762	0.121035	0.080691	0.093223	0.025565	0.144046	0.244700	0.058247	
15.127	0.387022	0.037874	0.013295	0.630193	0.048804	0.185868	0.033121	0.081456	0.203736	0.121304	0.079791	0.090986	0.025389	0.142807	0.242773	0.057425	
15.128	0.386400	0.038126	0.014905	0.628917	0.052639	0.181163	0.033381	0.081642	0.205656	0.121533	0.078837	0.088692	0.025209	0.141488	0.240834	0.056599	
